<svg xml:space="preserve" style="enable-background:new 0 0 1000 1000;" viewBox="0 0 1000 1000" y="0px" x="0px" xmlns:xlink="http://www.w3.org/1999/xlink" xmlns="http://www.w3.org/2000/svg" version="1.1">
<style type="text/css">
	.st0{fill-rule:evenodd;clip-rule:evenodd;fill:#FFFFFF;}
	.st1{fill:#FFFFFF;}
</style>
<g id="Line">
	<path d="M914.15,334.55c-1.71-1.82-1.94-3.98-0.8-6.15c0.91-1.59,2.39-3.64,6.15-5.01c3.19-1.14,5.69-0.91,7.74,0.11
		c2.73,1.48,4.89,4.44,7.28,7.4c3.76,4.56,8.54,7.63,13.32,11.27c1.37,1.02,2.73,2.05,3.53,3.53c2.28,4.44,0.11,9.22-4.32,10.7
		c-2.85,0.91-5.46,0.23-7.74-0.46c-5.01-1.48-9.68-6.72-13.43-10.13C921.89,342.18,917.79,338.53,914.15,334.55z" class="st0"></path>
</g>
<g id="_x31_989">
	<path d="M887.26,729.18h-3.93l7.49-10.83c-0.68,0.17-1.31,0.25-1.9,0.34c-0.59,0.08-1.08,0.13-1.58,0.13
		c-2.89,0-5.32-0.97-7.22-2.81c-1.89-1.89-2.84-4.28-2.84-7.14c0-2.94,1.04-5.37,3.07-7.26c2.08-1.93,4.69-2.9,7.85-2.9
		c3.11,0,5.73,0.92,7.76,2.86c2.08,1.89,3.11,4.2,3.11,6.97c0,2.39-1.31,5.46-3.97,9.28c-0.27,0.34-0.45,0.63-0.59,0.84
		L887.26,729.18z M759.9,729.18h-3.93l7.49-10.83c-0.68,0.17-1.31,0.25-1.9,0.34c-0.59,0.08-1.08,0.13-1.58,0.13
		c-2.89,0-5.32-0.97-7.22-2.81c-1.89-1.89-2.84-4.28-2.84-7.14c0-2.94,1.04-5.37,3.07-7.26c2.08-1.93,4.69-2.9,7.85-2.9
		c3.11,0,5.73,0.92,7.76,2.86c2.08,1.89,3.11,4.2,3.11,6.97c0,2.39-1.31,5.46-3.97,9.28c-0.27,0.34-0.45,0.63-0.59,0.84
		L759.9,729.18z M819.11,712.51c-1.13-0.71-1.99-1.55-2.57-2.52c-0.59-1.01-0.86-2.14-0.86-3.36c0-2.14,0.86-3.99,2.57-5.54
		c1.71-1.6,3.74-2.35,6.18-2.35c2.53,0,4.6,0.76,6.32,2.27c1.71,1.51,2.57,3.32,2.57,5.42c0,1.34-0.27,2.52-0.86,3.53
		c-0.59,1.01-1.49,1.85-2.71,2.56c1.71,0.88,2.93,1.93,3.79,3.19c0.81,1.22,1.22,2.69,1.22,4.37c0,2.81-0.99,5.12-2.93,6.97
		c-1.94,1.81-4.47,2.73-7.53,2.73c-2.8,0-5.19-0.92-7.13-2.77c-1.94-1.81-2.93-4.07-2.93-6.72c0-1.72,0.41-3.19,1.13-4.41
		C816.13,714.66,817.4,713.56,819.11,712.51z M699.29,729.18h-3.34v-27.29h-5.59v-2.56h8.93V729.18z M888.02,716.21
		c2.21,0,4.06-0.71,5.55-2.14s2.21-3.15,2.21-5.25c0-2.1-0.77-3.86-2.26-5.33c-1.53-1.43-3.38-2.14-5.55-2.14
		c-2.12,0-3.88,0.71-5.28,2.1c-1.4,1.39-2.12,3.15-2.12,5.33s0.68,3.95,2.12,5.33C884.1,715.5,885.86,716.21,888.02,716.21z
		 M760.67,716.21c2.21,0,4.06-0.71,5.55-2.14s2.21-3.15,2.21-5.25c0-2.1-0.77-3.86-2.26-5.33c-1.53-1.43-3.38-2.14-5.55-2.14
		c-2.12,0-3.88,0.71-5.28,2.1c-1.4,1.39-2.12,3.15-2.12,5.33s0.68,3.95,2.12,5.33C756.74,715.5,758.5,716.21,760.67,716.21z
		 M818.84,706.17c0,1.47,0.5,2.69,1.53,3.61c0.99,0.92,2.3,1.39,3.93,1.39c1.94,0,3.38-0.42,4.42-1.26
		c1.04-0.84,1.53-2.06,1.53-3.65c0-1.43-0.5-2.6-1.58-3.53c-1.08-0.88-2.44-1.34-4.11-1.34c-1.62,0-2.98,0.46-4.06,1.34
		C819.38,703.65,818.84,704.79,818.84,706.17z M817.44,720.62c0,1.89,0.68,3.49,1.99,4.7c1.35,1.26,2.98,1.89,4.87,1.89
		c2.08,0,3.83-0.63,5.19-1.89c1.35-1.3,2.03-2.9,2.03-4.83c0-2.02-0.63-3.61-1.89-4.83c-1.31-1.22-2.98-1.81-5.1-1.81
		c-2.17,0-3.93,0.59-5.19,1.81C818.07,716.88,817.44,718.52,817.44,720.62z" class="st1"></path>
</g>
<g id="London">
	<g>
		<polyline points="894.51,670.42 893.85,620.77 899.35,620.77 899.35,677.16 892.69,677.16 861.74,627.43 
			862.36,677.16 856.9,677.16 856.9,620.77 863.57,620.77 894.51,670.42" class="st0"></polyline>
		<path d="M760.87,624.15c3.35,0,6.46,0.58,9.27,1.74c2.8,1.14,5.42,2.9,7.79,5.22c2.42,2.38,4.26,5.06,5.46,7.96
			c1.21,2.94,1.83,6.15,1.83,9.56c0,3.44-0.53,6.62-1.59,9.46c-1.02,2.77-2.59,5.35-4.67,7.65c-2.45,2.7-5.14,4.68-8.22,6.04
			c-3.02,1.34-6.37,2.02-9.94,2.02c-6.9,0-12.52-2.34-17.17-7.16c-4.7-4.87-6.99-10.76-6.99-18c0-3.31,0.64-6.5,1.9-9.47
			c1.3-3.06,3.13-5.71,5.58-8.12c2.33-2.28,4.92-4.03,7.68-5.17C754.56,624.72,757.62,624.15,760.87,624.15 M760.87,619.65
			c-3.87,0-7.47,0.69-10.79,2.05c-3.32,1.37-6.36,3.41-9.12,6.12c-2.87,2.82-5.05,6-6.57,9.57c-1.51,3.56-2.26,7.31-2.26,11.24
			c0,8.38,2.75,15.43,8.25,21.12c5.5,5.7,12.31,8.54,20.41,8.54c4.23,0,8.16-0.81,11.77-2.41c3.62-1.6,6.86-3.97,9.73-7.13
			c2.47-2.74,4.34-5.78,5.57-9.12c1.24-3.34,1.86-7.02,1.86-11.01c0-4.03-0.73-7.79-2.17-11.28c-1.44-3.49-3.6-6.64-6.46-9.45
			c-2.79-2.74-5.87-4.8-9.24-6.17C768.47,620.33,764.81,619.65,760.87,619.65L760.87,619.65z" class="st1"></path>
		<path d="M638.51,625.27c3.98,0,7.3,0.38,9.88,1.14c2.43,0.7,4.49,1.79,6.32,3.35c2.73,2.28,4.79,5.02,6.31,8.37
			c1.53,3.36,2.27,6.86,2.27,10.72c0,4.35-0.82,8.16-2.51,11.68c-1.64,3.43-3.89,6.14-6.87,8.28c-1.91,1.35-4.01,2.34-6.25,2.93
			c-1.62,0.43-4.96,0.94-11.64,0.94h-9.05v-47.39H638.51 M638.51,620.77h-16.04v56.39h13.55c5.76,0,10.02-0.36,12.78-1.08
			c2.76-0.73,5.34-1.93,7.71-3.61c3.6-2.58,6.37-5.91,8.33-10.01c1.97-4.1,2.95-8.63,2.95-13.62c0-4.47-0.89-8.66-2.67-12.58
			c-1.78-3.93-4.28-7.24-7.52-9.95c-2.29-1.94-4.94-3.34-7.96-4.22C646.64,621.21,642.92,620.77,638.51,620.77L638.51,620.77z" class="st1"></path>
		<polygon points="547.39,670.42 546.73,620.77 552.23,620.77 552.23,677.16 545.57,677.16 514.62,627.43 
			515.24,677.16 509.78,677.16 509.78,620.77 516.45,620.77" class="st0"></polygon>
		<path d="M413.75,624.15c3.35,0,6.46,0.58,9.27,1.74c2.8,1.14,5.42,2.9,7.79,5.22c2.45,2.41,4.24,5.01,5.46,7.96
			c1.21,2.94,1.83,6.15,1.83,9.56c0,3.44-0.53,6.62-1.59,9.46c-1.02,2.77-2.59,5.35-4.67,7.65c-2.45,2.7-5.14,4.68-8.22,6.04
			c-3.02,1.34-6.37,2.02-9.94,2.02c-6.9,0-12.52-2.34-17.17-7.16c-4.7-4.87-6.99-10.76-6.99-18c0-3.31,0.64-6.5,1.9-9.47
			c1.3-3.06,3.13-5.71,5.58-8.12c2.33-2.28,4.92-4.03,7.68-5.17C407.44,624.72,410.49,624.15,413.75,624.15 M413.75,619.65
			c-3.87,0-7.47,0.69-10.79,2.05c-3.32,1.37-6.36,3.41-9.12,6.12c-2.87,2.82-5.05,6-6.57,9.57c-1.51,3.56-2.26,7.31-2.26,11.24
			c0,8.38,2.75,15.43,8.25,21.12c5.5,5.7,12.31,8.54,20.41,8.54c4.23,0,8.16-0.81,11.77-2.41c3.62-1.6,6.86-3.97,9.73-7.13
			c2.47-2.74,4.34-5.78,5.57-9.12c1.24-3.34,1.86-7.02,1.86-11.01c0-4.03-0.73-7.79-2.17-11.28c-1.44-3.49-3.6-6.64-6.46-9.45
			c-2.79-2.74-5.87-4.8-9.24-6.17C421.35,620.33,417.69,619.65,413.75,619.65L413.75,619.65z" class="st1"></path>
		<polygon points="323.8,677.16 298.39,677.16 298.39,620.77 303.97,620.77 303.97,671.7 323.8,671.7" class="st0"></polygon>
	</g>
</g>
<g id="Unze">
	<path d="M271.46,393.06c10.81,4.44,2.62,25.16-1.25,37.91c-2.05,6.83-1.59,14-1.94,21.17
		c-0.23,6.38,0,12.86-0.23,19.24c0.11,5.47,3.07,2.96,4.55,0.34c11.61-19.92,24.59-47.01,38.59-64.77
		c13.89-17.64,43.83-13.77,48.15,9.22c3.19,26.52,6.37,53.04,9.56,79.57c1.14,13.32,3.87,26.64,7.4,39.95
		c5.01,17.07,13.77,16.05,23.68,8.08c28.57-23.22,46.56-56.69,55.89-91.52c4.33-13.77,16.28-16.85,21.4-2.96
		c5.23,14.34,2.39,29.14-2.73,44.28c-14.34,31.87-35.97,63.4-66.14,82.3c-17.87,11.16-38.93,13.43-51.34-7.74
		c-11.04-19.01-16.16-39.84-18.55-61.58c-3.07-19.35-6.15-38.81-9.22-58.28c-0.91-6.38-2.73-7.29-5.58-2.51
		c-11.84,17.65-22.54,35.29-30.85,53.05c-3.42,7.62-6.72,15.37-10.02,22.99c-0.91,3.07-1.82,6.15-2.84,9.22
		c-1.71,5.81-2.73,11.61-4.33,17.3c-1.59,5.92-4.89,9.22-9.22,11.16c-7.17,3.19-18.78,4.1-23.45-3.64
		c-2.28-3.76-2.05-7.4-2.16-11.73c-0.68-18.55-1.36-37.22-1.94-55.78c0-4.9,0-9.68,0.12-14.57c0-4.9,0-9.68,0.11-14.57
		c0-4.9,0-9.68,0.11-14.57c0-4.9,0-9.68,0.11-14.57c1.37-13.66-2.5-35.52,11.95-39.84C257.46,388.39,265.99,390.56,271.46,393.06z
		 M467.25,421.06c14.91-10.47,50.31-21.85,77.86-25.61c44.62-6.14,91.29,5.46,135.8,8.65c16.05,1.14,31.76,0.68,46.79-1.71
		c3.07-0.57,6.03-1.14,8.99-1.71c15.59-3.87,35.97,5.58,18.78,15.48c-37.56,11.84-57.94,15.14-110.53,44.05
		c-51,24.25-96.41,55.55-141.15,87.65c19.81-0.8,39.61,0.11,59.53,3.42c22.88,3.19,45.76,6.37,68.64,9.56
		c20.15,2.05,52.7-1.94,77.29-12.18c9.45-4.44,30.62-12.41,37.11-1.71c1.82,5.69-1.71,8.65-7.06,11.27
		c-5.01,2.5-10.47,5.01-15.71,7.06c-37,14.91-73.76,23.22-112.01,21.4c-55.21-2.73-78.54-14.91-127.26-12.98
		c-16.51,2.05-32.56,4.78-47.47,9.11c-5.46,2.5-24.13,3.41-24.93-5.92c-0.34-3.07,3.07-7.74,17.53-13.89
		c34.26-18.1,60.22-38.25,86.4-55.66c44.74-28.69,89.93-52.59,137.28-76.95c-20.15-2.96-40.3-6.03-60.44-9.11
		c-22.31-2.28-47.35-4.67-69.66,0.11c-11.15,2.39-21.17,6.94-31.76,11.15C480.56,438.36,450.4,432.9,467.25,421.06z M799.63,457.6
		c6.15-9.45,12.98-18.33,21.06-26.07c11.04-10.47,45.76-32.1,60.22-17.07c7.74,8.2,3.75,23.11-1.25,33.35
		c-12.41,25.38-34.83,40.07-58.05,52.48c-7.28,3.87-16.85,7.51-22.76,9.45c-8.2,3.64-12.07,1.36-10.82-7.74
		c0-8.2,0.68-21.97,3.3-30.51C792.92,466.59,796.9,461.81,799.63,457.6z M753.42,491.18c11.15-39.04,39.04-80.59,90.49-101.76
		c17.65-7.29,47.01-4.1,65.11,2.96c9.22,5.23,10.24,12.52,10.59,21.74c-3.41,36.42-24.02,65.8-56.35,90.49
		c-15.82,12.29-33.24,22.54-52.93,29.6c-5.01,2.16-6.15,4.67-3.53,7.4c48.38,19.58,99.94,7.74,133.52-31.08
		c7.74-8.99,15.03-18.44,21.29-28.68c3.53-5.46,7.97-6.83,12.86-5.46c2.16,1.48,1.48,4.55,0.46,7.86
		c-4.1,10.47-8.2,20.83-12.29,31.19c-5.46,12.52-10.36,17.65-15.37,23.22c-37.45,37.33-90.72,41.2-123.17,39.04
		C824.1,577.69,730.42,572.11,753.42,491.18z M930.77,282.76l-0.46,0.34l-0.45,0.34l-0.57,0.34l-0.46,0.57l-0.45,0.45l-0.57,0.57
		l-0.45,0.68l-0.46,0.8l-0.45,0.8l-0.34,0.91l-0.34,0.91l-0.34,1.14l-0.23,1.14l-0.23,1.25v1.25l-0.12,1.48l0.12,0.91l0.11,1.03
		l0.11,0.91l0.11,0.91l0.34,1.02l0.23,0.91l0.34,0.91l0.46,0.8l0.45,0.91l0.57,0.8l0.57,0.68l0.68,0.68l0.68,0.68l0.8,0.57
		l0.91,0.57l0.91,0.45l0.57,0.23l0.45,0.11l0.57,0.11l0.57,0.11l0.57,0.11h0.57l0.57,0.11h0.68l0.57-0.11h0.57l0.57-0.11l0.57-0.11
		l0.57-0.11l0.57-0.11l0.45-0.11l0.57-0.23l0.68-0.23l0.68-0.34l0.68-0.34l0.68-0.45l0.68-0.45l0.68-0.57l0.68-0.57l0.68-0.68
		l0.68-0.8l0.57-0.91l0.57-0.91l0.57-1.03l0.45-1.14l0.46-1.25l0.45-1.25l0.23-1.48l0.34-1.82l0.11-1.71v-1.48l-0.11-1.36
		l-0.34-1.25l-0.34-1.14l-0.45-1.03l-0.46-0.8l-0.57-0.8l-0.68-0.57l-0.57-0.57l-0.68-0.45l-0.57-0.34l-0.57-0.23l-0.57-0.23
		l-0.45-0.11l-0.34-0.11l-0.34-0.11h-0.34l-0.46-0.11h-1.94l-0.45,0.11h-0.34l-0.34,0.11l-0.45,0.11l-0.34,0.11l-0.34,0.11
		l-0.34,0.11l-0.34,0.23l-0.45,0.23l-0.45,0.23l-0.46,0.23l-0.45,0.11l-0.45,0.11h-0.57l-0.11-0.11l-0.12-0.23v-0.57l-0.11-0.34
		v-0.34l-0.34-0.34l-0.34-0.23h-0.57l-0.45,0.11l-0.57,0.11l-0.45,0.23l-0.45,0.23l-0.45,0.23l-0.45,0.23L930.77,282.76z
		 M941.58,280.25h1.36l0.34,0.11h0.91l0.34,0.11h0.34l0.34,0.11h0.34l0.34,0.12l0.23,0.11l0.34,0.11l0.57,0.11l0.57,0.34l0.46,0.23
		l0.57,0.34l0.34,0.34l0.45,0.34l0.46,0.34l0.34,0.45l0.34,0.45l0.34,0.45l0.23,0.45l0.34,0.57l0.23,0.45l0.23,0.57l0.23,0.57
		l0.11,0.57l0.23,0.57l0.11,0.57l0.11,0.57v0.57l0.11,0.68v0.57l0.11,0.57v1.14l-0.11,0.57v0.57l-0.11,0.57v0.45l-0.11,0.57
		l-0.11,0.45l-0.11,0.45l-0.23,1.14l-0.34,1.02l-0.34,1.14l-0.34,1.02l-0.57,1.03l-0.45,1.02l-0.68,1.03l-0.57,1.02l-0.8,0.91
		l-0.8,0.91l-0.91,0.8l-1.03,0.68l-1.02,0.8l-1.25,0.57l-1.25,0.46l-1.37,0.45l-0.68,0.23l-0.68,0.11l-0.68,0.11h-0.68l-0.68,0.11
		h-1.25l-0.68-0.11l-0.57-0.11l-0.68-0.11l-0.57-0.11l-0.57-0.23l-0.68-0.11l-0.57-0.23l-0.57-0.34l-0.45-0.23l-0.57-0.34
		l-0.57-0.34l-0.46-0.34l-0.45-0.34l-0.45-0.46l-0.45-0.45l-0.45-0.34l-0.45-0.57l-0.34-0.45l-0.34-0.46l-0.34-0.57l-0.34-0.57
		l-0.34-0.57l-0.22-0.57l-0.34-0.57l-0.23-0.57l-0.11-0.68l-0.23-0.57l-0.11-0.68l-0.11-0.68l-0.11-0.57l-0.11-0.68v-3.3l0.11-0.68
		v-0.68l0.11-0.68l0.11-0.57l0.11-0.68l0.23-0.57l0.11-0.68l0.23-0.57l0.12-0.57l0.23-0.57l0.22-0.57l0.23-0.57l0.23-0.57l0.23-0.45
		l0.23-0.45l0.23-0.45l0.34-0.46l0.23-0.34l0.22-0.45l0.34-0.34l0.23-0.23l0.57-0.57l0.57-0.57l0.57-0.45l0.57-0.34l0.57-0.34
		l0.57-0.34l0.45-0.23l0.57-0.23l0.45-0.11l0.45-0.23l0.34-0.11h0.34l0.23-0.11h0.45l0.23-0.11h1.48l0.57,0.11l0.46,0.11l0.45,0.23
		l0.46,0.23l0.57,0.11h1.14l0.57-0.11l0.57-0.11h0.57L941.58,280.25z M940.55,300.17l-0.57-0.12l-0.57-0.11l-0.57-0.23l-0.57-0.11
		l-0.57-0.23l-0.57-0.23l-0.57-0.11l-0.57-0.23l-0.68-0.23l-0.57-0.23l-0.12-0.11h-0.11l-0.11-0.11v-0.34v-0.11v-0.34v-0.11h0.68
		l0.8-0.11l0.8-0.11l0.8-0.23l0.8-0.11l0.8-0.23l0.8-0.23l0.8-0.23l0.8-0.34l0.8-0.23l0.68-0.34l0.68-0.45l0.68-0.34l0.68-0.57
		l0.57-0.45l0.46-0.57l0.57-0.8l0.34-0.68l0.12-0.68l-0.12-0.57l-0.23-0.57l-0.34-0.46l-0.57-0.45l-0.57-0.34l-0.57-0.34l-0.68-0.23
		l-0.68-0.23l-0.8-0.23l-0.68-0.11l-0.68-0.11l-0.68-0.11l-0.57-0.11h-3.07l-0.68,0.11h-0.8l-0.8,0.11l-0.68,0.11l-0.68,0.23
		l-0.8,0.11l-0.68,0.23l-0.68,0.23l-0.57,0.23l-0.68,0.23l-0.57,0.34l-0.57,0.34l-0.11,0.12h-0.12v0.11h-0.11v0.11h-0.11v0.11
		l-0.11,0.11v0.11l-0.11,0.11v0.23h0.11v0.11v0.11l0.11,0.11l0.11,0.11v0.11h0.11v0.11h0.23l0.11,0.11h0.34v-0.11h0.11l0.11-0.11
		h0.11v-0.11h0.11l0.11-0.11l0.68-0.45l0.68-0.45l0.68-0.23l0.8-0.34l0.8-0.23l0.8-0.23l0.91-0.11l0.8-0.11h0.91l0.91-0.11h0.8
		l0.91,0.11l0.8,0.11h0.8l0.8,0.23l0.8,0.11l0.45,0.11l0.45,0.11l0.57,0.23l0.45,0.23l0.34,0.23l0.34,0.34l0.23,0.45v0.68
		l-0.11,0.34l-0.11,0.34l-0.23,0.34l-0.34,0.23l-0.23,0.34l-0.34,0.23l-0.34,0.23l-0.46,0.34l-0.57,0.23l-0.68,0.34l-0.8,0.34
		l-0.68,0.23l-0.8,0.23l-0.8,0.34l-0.8,0.23l-0.8,0.23l-0.68,0.11l-0.68,0.11l-0.57,0.11l-0.45,0.11h-0.34v-0.91l0.11-0.34v-0.34
		l0.12-0.34v-0.68l0.11-0.11v-0.12v-0.45l0.11-0.11v-0.68l0.11-0.34v-0.23l0.11-0.34v-0.23l0.11-0.34v-0.34v-0.11l0.12-0.11h-0.12
		v-0.11v-0.11v-0.11l-0.11-0.11l-0.23-0.23l-0.11-0.11l-0.23-0.12h-0.45l-0.23,0.12l-0.23,0.23l-0.11,0.34v0.45l-0.11,0.34
		l-0.11,0.45v0.34l-0.11,0.45v0.91v0.23l0.11,0.11V293h0.11v0.11l0.11,0.12v0.11l-0.11,0.45v0.45l-0.11,0.45v0.45l-0.11,0.34v0.57
		h-0.12l-0.23,0.11h-0.23l-0.23,0.11h-1.02l-0.11-0.11h-0.11l-0.11-0.11l-0.12-0.11l-0.11-0.11h-0.11v-0.11h-0.11l-0.12-0.11
		l-0.11-0.11h-0.11l-0.11-0.11h-0.57l-0.11,0.11h-0.11l-0.11,0.11l-0.23,0.23l-0.11,0.23v0.34l0.11,0.23v0.23l0.23,0.23l0.23,0.23
		l0.23,0.11h0.57v0.12h0.11l0.11,0.11l0.12,0.11h0.11l0.11,0.11v0.11l0.34,0.11l0.23,0.11l0.23,0.23l0.23,0.11l0.34,0.11l0.23,0.11
		l0.23,0.23l0.34,0.11h0.11v0.11v1.94v0.46l0.12,0.11V302l0.11,0.11v0.11h0.11l0.11,0.11h0.34l0.11-0.11h0.11v-0.11h0.11V302
		l0.11-0.11v-0.11l0.11-0.11v-0.23h0.11v-0.12l-0.11-0.11v-0.23v-0.23l-0.11-0.11v-0.11v-0.11l-0.11-0.11v-0.11v-0.12v-0.22v-0.11
		l0.57,0.23l0.68,0.23l0.68,0.23l0.8,0.23l0.68,0.23l0.68,0.23l0.8,0.23l0.68,0.12l0.8,0.23l0.8,0.11l0.68,0.11l0.8,0.23h0.8
		l0.68,0.11l0.8,0.11h1.14l0.23-0.11l0.11-0.11l0.23-0.11l0.12-0.11v-0.68l-0.23-0.23l-0.11-0.11l-0.23-0.11h-0.45l-0.23,0.11h-0.12
		l-0.11,0.11h-0.91l-0.34-0.11h-0.8l-0.57-0.11l-0.57-0.11l-0.57-0.11l-0.68-0.11L940.55,300.17z M933.27,297.44 M40.84,447.47
		c0.11-0.45-6.03,0.68-10.02-0.45c-4.21-1.02-6.83-5.81-6.72-11.95c0-31.87,5.8-104.27,20.49-135.91
		c2.28-4.55,20.49-8.54,33.13,3.07c5.01,6.15,5.46,14.57-0.57,26.52c-6.37,14.12-7.63,29.03-9.67,43.71
		c-4.1,30.05-4.56,60.22-5.01,89.93c0.91,43.48,0.34,83.32,12.75,125.44c9.11,30.74,27.43,71.71,61.81,34.15
		c18.32-24.93,31.19-60.79,38.7-107.57c3.07-17.76,6.15-35.52,9.22-53.27c3.53-32.44,3.76-64.32,5.58-96.53
		c2.96-21.17,4.78-70.12,14.68-86.85c4.78-8.08,14.23-11.38,21.06-1.02c6.26,9.56,4.33,20.6-1.71,32.21
		c-9.22,42.57-11.61,85.26-14.69,127.83c-4.78,67.16,0.34,129.54,8.88,194.76c1.59,12.64,3.41,25.38,4.67,38.25
		c0.34,4.1,0.45,5.24,3.07,8.42c3.41,4.21,6.83,7.63,10.58,10.81c3.07,2.51,5.01,3.07,6.03,7.06c5.58,21.06-22.88,45.08-31.53,19.35
		c-5.12-14-8.65-29.6-11.04-47.01c-4.1-29.02-10.13-61.81-12.18-100.85c-4.67,18.55-10.13,37.45-17.87,55.1
		c-9.79,22.08-23.33,47.35-49.06,52.59c-30.73,6.15-52.13-25.04-61.92-54.87c-13.32-40.41-15.94-79.68-18.67-123.17
		C39.7,480.71,39.36,464.2,40.84,447.47z" class="st0"></path>
</g>
</svg>
